# xmcd CD database file
#
# Track frame offsets:
#	150
#	22200
#	41047
#	63022
#
# Disc length: 1090 seconds
#
# Revision: 0
# Processed by: cddbd v1.5.1PL0 Copyright (c) Steve Scherf et al.
# Submitted via: CDex 1.51
#
DISCID=2f044004
DTITLE=おはガール BANANA - グッドモーニング！サンタクロース
DYEAR=1998
DGENRE=JPop
TTITLE0=グッドモーニング！サンタクロース
TTITLE1=プリーズパラダイス
TTITLE2=グッドモーニング！サンタクロース(オリジナルカラオケ)
TTITLE3=プリーズパラダイス(オリジナルカラオケ)
EXTD=YEAR: 1998
EXTT0=
EXTT1=
EXTT2=
EXTT3=
PLAYORDER=
